<svg xmlns="http://www.w3.org/2000/svg" width="140" height="26" viewBox="0 0 140 26" fill="none"><path fill="#fff" fill-rule="evenodd" shape-rendering="auto" d="M34.3 7.95c-.46.13-.9.36-1.28.66-.36.3-.65.66-.84 1.09-.2.48-.3 1-.3 1.51v.3a1 1 0 0 0 .02.21h1.95v-.28c0-.24.03-.48.1-.7a1.6 1.6 0 0 1 .9-1.1c.3-.13.62-.19.94-.18.33-.01.67.04 1 .15a1.4 1.4 0 0 1 .9 1.06c.06.27.1.54.09.82v1.61c-.85 0-1.7.06-2.55.17-.7.1-1.39.3-2.02.63-.56.29-1.02.73-1.34 1.27a4.11 4.11 0 0 0-.48 2.11c0 .44.04.88.16 1.31.09.34.23.66.42.95.16.24.37.46.61.63.22.16.46.3.71.39a3.72 3.72 0 0 0 1.42.24c.62 0 1.24-.14 1.79-.43.52-.29.96-.7 1.28-1.21h.12a1.97 1.97 0 0 0 2 1.54 3.02 3.02 0 0 0 1.3-.28v-1.35h-.77a.68.68 0 0 1-.47-.2c-.14-.12-.21-.33-.21-.63v-7c0-1.11-.32-1.97-.95-2.59-.63-.61-1.59-.92-2.86-.92-.55 0-1.1.07-1.64.22Zm3.48 8.03c0 .46-.07.93-.24 1.36-.13.36-.34.68-.6.96a2.51 2.51 0 0 1-1.78.77c-.55 0-.97-.14-1.26-.42-.3-.28-.44-.77-.44-1.49-.02-.41.1-.83.32-1.18.23-.31.53-.56.89-.7.43-.2.89-.3 1.36-.35.58-.06 1.16-.09 1.75-.09v1.14Zm7.07 3.09c.26.53.66.98 1.17 1.3.47.29 1.02.44 1.58.44.57 0 1.13-.12 1.63-.38.5-.28.93-.68 1.23-1.18.38-.63.64-1.32.78-2.04.2-.98.3-1.97.28-2.97.01-.99-.08-1.97-.3-2.93a6.56 6.56 0 0 0-.8-2.03 3.04 3.04 0 0 0-2.68-1.55 3.4 3.4 0 0 0-1.63.4c-.46.23-.83.61-1.05 1.08h-.12V3.33h-1.97v17.19h1.5l.25-1.45h.13Zm4.6-4.35c.01.66-.03 1.33-.13 2-.07.46-.22.91-.43 1.34-.16.32-.4.58-.7.76-.3.17-.65.25-1 .25-.76 0-1.32-.37-1.7-1.1a7.42 7.42 0 0 1-.55-3.25v-.8c0-2.97.75-4.45 2.25-4.45.35 0 .7.08 1 .25.3.18.54.44.7.76.21.42.36.88.43 1.35.1.65.14 1.32.14 1.98v.9Zm11.92-6.7h-7.88v1.74h5.17L53.1 19.6v.93h8.57v-1.73H55.8l5.57-9.87v-.9Zm4.9 9.92h-2.4v2.58h2.4v-2.58Zm5.26-9.99c-.47.13-.9.36-1.29.66-.36.29-.64.66-.83 1.09-.21.48-.31 1-.3 1.51v.3c0 .07 0 .14.02.21h1.95v-.28c0-.24.03-.48.1-.7.05-.24.16-.46.3-.65.17-.2.37-.35.6-.46.3-.12.61-.18.93-.17.34-.01.68.04 1 .15a1.4 1.4 0 0 1 .91 1.06c.06.27.09.54.08.82v1.61c-.85 0-1.7.05-2.54.17-.7.09-1.4.3-2.03.63-.55.29-1.02.73-1.33 1.27a4.11 4.11 0 0 0-.49 2.1c0 .45.05.9.16 1.32.1.34.24.66.43.95.16.24.37.46.6.63.22.16.47.3.72.39a3.73 3.73 0 0 0 1.41.23A3.44 3.44 0 0 0 75 19.15h.12c.11.45.36.84.7 1.13.37.29.83.44 1.3.42a3.02 3.02 0 0 0 1.3-.28v-1.35h-.77a.68.68 0 0 1-.46-.2c-.14-.12-.22-.33-.22-.63v-7c0-1.11-.31-1.97-.95-2.59-.63-.61-1.58-.92-2.86-.92-.55 0-1.1.07-1.63.22ZM75 15.98c.01.46-.07.92-.23 1.36-.14.36-.34.68-.61.96a2.51 2.51 0 0 1-1.77.77c-.56 0-.98-.14-1.27-.42-.29-.28-.43-.77-.43-1.49-.02-.41.1-.83.32-1.18.22-.31.53-.56.88-.7.43-.2.9-.3 1.36-.35.58-.06 1.17-.09 1.75-.09v1.14ZM87.5 6c-.04.2-.08.4-.14.6a2.43 2.43 0 0 1-.72 1.11c-.22.2-.45.35-.7.48a4.07 4.07 0 0 0-1.83-.45c-.58 0-1.17.09-1.72.3a3.55 3.55 0 0 0-2.12 2.15 5.16 5.16 0 0 0 .1 3.62c.26.53.63 1 1.08 1.37-.5.16-.94.45-1.3.84-.32.36-.49.83-.48 1.32 0 .37.1.74.27 1.07.18.33.44.61.76.8-.25.1-.48.24-.68.41a3.04 3.04 0 0 0-.96 2.26c0 .4.07.79.2 1.16a2.68 2.68 0 0 0 1.57 1.58c.44.16.9.24 1.36.23h3.58c.54.01 1.08-.08 1.58-.27a3.13 3.13 0 0 0 1.87-1.88c.16-.45.24-.92.24-1.4 0-.38-.07-.76-.2-1.12a2.76 2.76 0 0 0-1.53-1.56c-.4-.16-.81-.23-1.24-.23h-3.6a1.11 1.11 0 0 1-.8-.33c-.11-.1-.2-.22-.26-.36-.06-.14-.1-.28-.1-.43a1.08 1.08 0 0 1 .34-.8 1.15 1.15 0 0 1 .81-.32h1.33c.57 0 1.13-.1 1.66-.3a3.63 3.63 0 0 0 2.08-2.16 4.99 4.99 0 0 0 0-3.4c-.2-.48-.48-.92-.83-1.28a2.74 2.74 0 0 0 1.97-1.96c.1-.34.14-.7.14-1.05h-1.74Zm-1.52 14.25c.22 0 .45.03.66.11a1.22 1.22 0 0 1 .74.77c.06.18.09.38.09.57a1.46 1.46 0 0 1-1.5 1.47H82.5c-.22 0-.44-.03-.64-.11a1.26 1.26 0 0 1-.74-.8 1.8 1.8 0 0 1 0-1.14 1.23 1.23 0 0 1 .73-.77c.2-.07.42-.1.65-.1h3.48ZM85.7 10c.36.45.55 1.1.55 1.93 0 .8-.19 1.43-.55 1.89-.37.46-.9.69-1.6.69-.71 0-1.24-.22-1.6-.66a2.96 2.96 0 0 1-.54-1.92c0-.8.18-1.43.54-1.9.36-.46.89-.7 1.6-.7.7 0 1.23.23 1.6.67Zm6.2-.69c-.79 1.06-1.18 2.7-1.18 4.94-.02 1 .08 2 .3 2.98.16.73.47 1.42.9 2.03.4.52.9.92 1.5 1.16a5.4 5.4 0 0 0 3.76.05c.5-.2.94-.5 1.3-.9.38-.4.67-.9.85-1.42.2-.61.3-1.26.3-1.9h-1.95c0 .4-.05.79-.16 1.17-.1.32-.24.62-.44.89a1.9 1.9 0 0 1-1.55.75c-.93 0-1.62-.34-2.07-1.02-.45-.68-.67-1.75-.68-3.2h6.85V13.6c.01-.9-.08-1.8-.27-2.68a5.04 5.04 0 0 0-.78-1.82 3.06 3.06 0 0 0-1.3-1.04 4.66 4.66 0 0 0-1.82-.33c-1.58 0-2.76.53-3.55 1.6Zm5.13 1.06c.36.62.53 1.52.53 2.72H92.8a9.2 9.2 0 0 1 .25-1.58c.1-.4.26-.79.5-1.14.2-.3.46-.53.78-.69.36-.16.74-.24 1.13-.23a1.7 1.7 0 0 1 1.57.92Zm8.28-2.25A3.2 3.2 0 0 0 104 9.46h-.14l-.27-1.44h-1.49v12.5h1.97v-7.63c0-.49.06-.97.2-1.45.1-.38.28-.75.51-1.07.2-.28.45-.51.74-.68.28-.15.58-.23.9-.23.24 0 .48.03.72.1.22.06.41.18.56.35.17.2.3.42.37.67.1.35.14.71.13 1.07v8.87h1.97v-9c.01-.6-.06-1.2-.23-1.77a3.13 3.13 0 0 0-.62-1.17c-.27-.3-.6-.52-.98-.65-.42-.14-.85-.2-1.3-.2-.6 0-1.19.13-1.73.4Zm8.22 1.2c-.7 1.05-1.05 2.7-1.05 4.93-.02.98.07 1.96.25 2.92.14.72.4 1.4.79 2.03.33.52.8.93 1.34 1.2.6.27 1.27.4 1.93.39a3.39 3.39 0 0 0 2.98-1.48c.32-.48.55-1.01.68-1.57a8.1 8.1 0 0 0 .21-1.87h-1.95c0 .45-.03.91-.1 1.37-.05.34-.16.68-.33 1a1.57 1.57 0 0 1-1.49.82c-.8 0-1.37-.37-1.72-1.1a7.74 7.74 0 0 1-.53-3.24v-.92c0-1.45.18-2.53.54-3.26a1.8 1.8 0 0 1 1.71-1.09c.3-.01.6.06.88.2.24.14.44.34.56.59.16.31.26.65.3 1 .06.46.1.93.09 1.4h2.04c0-.7-.06-1.42-.22-2.11a4.13 4.13 0 0 0-.68-1.54 2.94 2.94 0 0 0-1.2-.95 4.41 4.41 0 0 0-1.77-.32c-1.48 0-2.56.53-3.26 1.6Zm17.57-1.3h-2l-2.37 9.68h-.09l-2.79-9.69h-2.16l3.87 12.5c-.1.46-.24.9-.43 1.33-.15.32-.35.61-.59.86-.2.2-.44.36-.7.46a2.3 2.3 0 0 1-.78.13h-.69v1.35c.21.08.43.13.65.16.25.02.5.04.76.04.52 0 1.03-.13 1.47-.4.44-.28.83-.64 1.13-1.07a7.4 7.4 0 0 0 .85-1.57c.25-.63.46-1.28.64-1.93l3.23-11.86ZM11.24 17.63l1.36-2.06 8.65-13.12H3.95L8.02 8.6l-1.35 2.04L0 .5h25.18L12.59 19.68l-1.35-2.05Zm2.7-9.26-1.36 2.06-8.65 13.12h17.3l-4.06-6.15 1.35-2.04 6.66 10.14H0L12.59 6.32l1.35 2.05Z" clip-rule="evenodd"></path><path fill="#fff" shape-rendering="auto" d="M136.54 2.63c.37 0 .66.09.87.26a.9.9 0 0 1 .31.73.9.9 0 0 1-.31.74c-.22.17-.5.25-.87.25l-.06.04h-.7v1.26h-.67V2.63h1.43Zm-.08 1.5c.2 0 .33-.04.42-.12.1-.08.15-.2.15-.36 0-.16-.05-.28-.15-.36-.09-.08-.23-.12-.42-.12h-.68v.96h.68Zm.4.14 1.05 1.64h-.76l-.87-1.44.58-.2Z"></path><path fill="#fff" fill-rule="evenodd" shape-rendering="auto" d="M136.27 7.33a3.12 3.12 0 1 0 .01-6.24 3.12 3.12 0 0 0 0 6.24Zm0 .6a3.72 3.72 0 1 0 .01-7.44 3.72 3.72 0 0 0 0 7.44Z" clip-rule="evenodd"></path></svg>
